<svg id="visual" viewBox="0 0 1920 1080" width="1920" height="1080" xmlns="http://www.w3.org/2000/svg" xmlns:xlink="http://www.w3.org/1999/xlink" version="1.1"><rect x="0" y="0" width="1920" height="1080" fill="#001220"></rect><path d="M0 772L45.7 772C91.3 772 182.7 772 274.2 753C365.7 734 457.3 696 548.8 686.5C640.3 677 731.7 696 823 712.3C914.3 728.7 1005.7 742.3 1097 742C1188.3 741.7 1279.7 727.3 1371.2 727C1462.7 726.7 1554.3 740.3 1645.8 727.7C1737.3 715 1828.7 676 1874.3 656.5L1920 637L1920 1081L1874.3 1081C1828.7 1081 1737.3 1081 1645.8 1081C1554.3 1081 1462.7 1081 1371.2 1081C1279.7 1081 1188.3 1081 1097 1081C1005.7 1081 914.3 1081 823 1081C731.7 1081 640.3 1081 548.8 1081C457.3 1081 365.7 1081 274.2 1081C182.7 1081 91.3 1081 45.7 1081L0 1081Z" fill="#fa7268"></path><path d="M0 854L45.7 830.5C91.3 807 182.7 760 274.2 739.3C365.7 718.7 457.3 724.3 548.8 748.5C640.3 772.7 731.7 815.3 823 820C914.3 824.7 1005.7 791.3 1097 790C1188.3 788.7 1279.7 819.3 1371.2 829.5C1462.7 839.7 1554.3 829.3 1645.8 809.3C1737.3 789.3 1828.7 759.7 1874.3 744.8L1920 730L1920 1081L1874.3 1081C1828.7 1081 1737.3 1081 1645.8 1081C1554.3 1081 1462.7 1081 1371.2 1081C1279.7 1081 1188.3 1081 1097 1081C1005.7 1081 914.3 1081 823 1081C731.7 1081 640.3 1081 548.8 1081C457.3 1081 365.7 1081 274.2 1081C182.7 1081 91.3 1081 45.7 1081L0 1081Z" fill="#ef5f67"></path><path d="M0 828L45.7 834.7C91.3 841.3 182.7 854.7 274.2 848.2C365.7 841.7 457.3 815.3 548.8 803C640.3 790.7 731.7 792.3 823 812.5C914.3 832.7 1005.7 871.3 1097 890.5C1188.3 909.7 1279.7 909.3 1371.2 901.5C1462.7 893.7 1554.3 878.3 1645.8 858.2C1737.3 838 1828.7 813 1874.3 800.5L1920 788L1920 1081L1874.3 1081C1828.7 1081 1737.3 1081 1645.8 1081C1554.3 1081 1462.7 1081 1371.2 1081C1279.7 1081 1188.3 1081 1097 1081C1005.7 1081 914.3 1081 823 1081C731.7 1081 640.3 1081 548.8 1081C457.3 1081 365.7 1081 274.2 1081C182.7 1081 91.3 1081 45.7 1081L0 1081Z" fill="#e34c67"></path><path d="M0 875L45.7 889.2C91.3 903.3 182.7 931.7 274.2 948.7C365.7 965.7 457.3 971.3 548.8 958C640.3 944.7 731.7 912.3 823 908C914.3 903.7 1005.7 927.3 1097 936.3C1188.3 945.3 1279.7 939.7 1371.2 934.2C1462.7 928.7 1554.3 923.3 1645.8 919.3C1737.3 915.3 1828.7 912.7 1874.3 911.3L1920 910L1920 1081L1874.3 1081C1828.7 1081 1737.3 1081 1645.8 1081C1554.3 1081 1462.7 1081 1371.2 1081C1279.7 1081 1188.3 1081 1097 1081C1005.7 1081 914.3 1081 823 1081C731.7 1081 640.3 1081 548.8 1081C457.3 1081 365.7 1081 274.2 1081C182.7 1081 91.3 1081 45.7 1081L0 1081Z" fill="#d53867"></path><path d="M0 958L45.7 969C91.3 980 182.7 1002 274.2 1013C365.7 1024 457.3 1024 548.8 1024.7C640.3 1025.3 731.7 1026.7 823 1018.3C914.3 1010 1005.7 992 1097 991.2C1188.3 990.3 1279.7 1006.7 1371.2 1003.8C1462.7 1001 1554.3 979 1645.8 965.8C1737.3 952.7 1828.7 948.3 1874.3 946.2L1920 944L1920 1081L1874.3 1081C1828.7 1081 1737.3 1081 1645.8 1081C1554.3 1081 1462.7 1081 1371.2 1081C1279.7 1081 1188.3 1081 1097 1081C1005.7 1081 914.3 1081 823 1081C731.7 1081 640.3 1081 548.8 1081C457.3 1081 365.7 1081 274.2 1081C182.7 1081 91.3 1081 45.7 1081L0 1081Z" fill="#c62368"></path></svg>